<svg width="1369" height="573" viewBox="0 0 1369 573" fill="none" xmlns="http://www.w3.org/2000/svg">
<rect width="1369" height="573" fill="#0F0F0F"/>
<g filter="url(#filter0_d_7_8)">
<rect x="822" y="200" width="90" height="90" rx="6" fill="#F8641A"/>
<rect x="822.5" y="200.5" width="89" height="89" rx="5.5" stroke="#212B36"/>
</g>
<g filter="url(#filter1_d_7_8)">
<rect x="937" y="200" width="90" height="90" rx="6" fill="white"/>
<rect x="937.5" y="200.5" width="89" height="89" rx="5.5" stroke="#212B36"/>
</g>
<g filter="url(#filter2_d_7_8)">
<rect x="937" y="93" width="90" height="90" rx="6" fill="#F8641A"/>
<rect x="937.5" y="93.5" width="89" height="89" rx="5.5" stroke="#212B36"/>
</g>
<g filter="url(#filter3_d_7_8)">
<rect x="1052" y="200" width="90" height="90" rx="6" fill="#F8641A"/>
<rect x="1052.5" y="200.5" width="89" height="89" rx="5.5" stroke="#212B36"/>
</g>
<path d="M1099.68 258L1097.71 256.057L1105.82 247.952H1084.83V245.139H1105.82L1097.71 237.06L1099.68 235.091L1111.14 246.545L1099.68 258Z" fill="black"/>
<path d="M969 247.681L970.943 245.713L979.048 253.818V232.826H981.861V253.818L989.94 245.713L991.909 247.681L980.455 259.136L969 247.681Z" fill="black"/>
<path d="M995 136.319L993.057 138.287L984.952 130.182V151.174H982.139V130.182L974.06 138.287L972.091 136.319L983.545 124.864L995 136.319Z" fill="black"/>
<path d="M864.835 258L853.38 246.545L864.835 235.091L866.803 237.034L858.698 245.139H879.69V247.952H858.698L866.803 256.031L864.835 258Z" fill="black"/>
<g filter="url(#filter4_d_7_8)">
<rect x="129" y="200" width="617" height="90" rx="6" fill="#F8641A"/>
<rect x="129.5" y="200.5" width="616" height="89" rx="5.5" stroke="#212B36"/>
<path d="M144.289 261.211C144.289 263.438 146.176 264.141 148.473 264.609C150.195 264.949 151.566 265.219 151.566 266.613C151.566 267.656 150.711 268.547 148.824 268.547C147.184 268.547 146.223 267.809 146.047 266.684H144.078C144.078 268.898 145.965 270.199 148.672 270.199C151.566 270.199 153.547 268.816 153.547 266.367C153.547 263.965 151.602 263.344 149.293 262.934C147.887 262.676 146.258 262.383 146.258 261C146.258 259.781 147.312 259.137 148.777 259.137C150.699 259.137 151.285 260.238 151.355 261.176H153.23C153.23 259.137 151.742 257.484 148.848 257.484C146.48 257.484 144.289 258.609 144.289 261.211ZM161.996 270.199C164.891 270.199 166.906 268.008 166.906 264.41V263.273C166.906 259.629 164.855 257.496 162.078 257.496C160.426 257.496 159.16 258.293 158.445 259.453H158.387V257.684H156.453V274.09H158.469V268.359H158.527C159.219 269.449 160.426 270.199 161.996 270.199ZM161.797 268.441C159.699 268.441 158.434 266.777 158.434 264.258V263.332C158.434 260.883 159.688 259.23 161.738 259.23C163.73 259.23 164.879 260.754 164.879 263.344V264.258C164.879 266.965 163.637 268.441 161.797 268.441ZM173.328 270.199C175.145 270.199 176.27 269.461 176.891 268.465H176.949V270H178.883V261.504C178.883 258.914 176.973 257.484 174.348 257.484C171.371 257.484 169.906 259.055 169.777 261.211H171.676C171.793 259.98 172.695 259.172 174.277 259.172C175.941 259.172 176.879 260.062 176.879 261.68V262.934H173.633C170.809 262.945 169.309 264.305 169.309 266.461C169.309 268.723 170.949 270.199 173.328 270.199ZM173.867 268.523C172.578 268.523 171.371 267.844 171.371 266.391C171.371 265.277 172.098 264.48 173.785 264.48H176.879V265.91C176.879 267.445 175.59 268.523 173.867 268.523ZM181.871 264.398C181.871 267.68 183.711 270.199 186.98 270.199C189.805 270.199 191.352 268.723 191.762 266.613H189.781C189.559 267.598 188.656 268.418 187.121 268.418C185.152 268.418 183.887 266.824 183.887 264.41V263.262C183.887 260.777 185.07 259.266 187.109 259.266C188.445 259.266 189.418 260.215 189.688 261.258H191.668C191.562 259.371 189.828 257.484 186.98 257.484C183.77 257.484 181.871 259.863 181.871 263.18V264.398ZM199.25 270.199C201.969 270.199 203.598 268.688 204.066 266.648H202.062C201.664 267.797 200.727 268.512 199.297 268.512C197.293 268.512 196.098 266.906 196.098 264.562V264.34H204.23V263.191C204.23 259.805 202.379 257.484 199.156 257.484C195.922 257.484 194.082 259.805 194.082 263.051V264.434C194.082 267.938 196.039 270.199 199.25 270.199ZM196.098 262.711V262.676C196.098 260.73 197.293 259.172 199.168 259.172C201.008 259.172 202.215 260.719 202.215 262.676V262.711H196.098Z" fill="#212B36"/>
</g>
<path d="M872.111 414.889C874.259 417.037 877.741 417.037 879.889 414.889L914.891 379.887C917.039 377.739 917.039 374.257 914.891 372.109C912.743 369.961 909.261 369.961 907.113 372.109L876 403.222L844.887 372.109C842.739 369.961 839.257 369.961 837.109 372.109C834.961 374.257 834.961 377.739 837.109 379.887L872.111 414.889ZM870.5 267V411H881.5V267H870.5Z" fill="white"/>
<path d="M434.111 410.889C436.259 413.037 439.741 413.037 441.889 410.889L476.891 375.887C479.039 373.739 479.039 370.257 476.891 368.109C474.743 365.961 471.261 365.961 469.113 368.109L438 399.222L406.887 368.109C404.739 365.961 401.257 365.961 399.109 368.109C396.961 370.257 396.961 373.739 399.109 375.887L434.111 410.889ZM432.5 263V407H443.5V263H432.5Z" fill="white"/>
<path d="M1093.11 414.889C1095.26 417.037 1098.74 417.037 1100.89 414.889L1135.89 379.887C1138.04 377.739 1138.04 374.257 1135.89 372.109C1133.74 369.961 1130.26 369.961 1128.11 372.109L1097 403.222L1065.89 372.109C1063.74 369.961 1060.26 369.961 1058.11 372.109C1055.96 374.257 1055.96 377.739 1058.11 379.887L1093.11 414.889ZM1091.5 267V411H1102.5V267H1091.5Z" fill="white"/>
<path d="M1151.89 142.889C1154.04 140.741 1154.04 137.259 1151.89 135.111L1116.89 100.109C1114.74 97.9612 1111.26 97.9612 1109.11 100.109C1106.96 102.257 1106.96 105.739 1109.11 107.887L1140.22 139L1109.11 170.113C1106.96 172.261 1106.96 175.743 1109.11 177.891C1111.26 180.039 1114.74 180.039 1116.89 177.891L1151.89 142.889ZM1004 144.5H1148V133.5H1004V144.5Z" fill="white"/>
<path d="M1186.46 135.08C1186.46 136.616 1186.1 138.02 1185.38 139.292C1184.69 140.54 1183.62 141.548 1182.18 142.316C1180.76 143.06 1179.02 143.432 1176.96 143.432H1173.47V152H1166.41V126.62H1176.96C1179 126.62 1180.73 126.98 1182.14 127.7C1183.58 128.42 1184.66 129.416 1185.38 130.688C1186.1 131.96 1186.46 133.424 1186.46 135.08ZM1176.27 137.816C1178.27 137.816 1179.26 136.904 1179.26 135.08C1179.26 133.232 1178.27 132.308 1176.27 132.308H1173.47V137.816H1176.27ZM1209.96 131.804V152H1202.87V149.12C1202.27 150.032 1201.44 150.776 1200.39 151.352C1199.33 151.904 1198.12 152.18 1196.75 152.18C1194.4 152.18 1192.54 151.412 1191.17 149.876C1189.83 148.316 1189.15 146.204 1189.15 143.54V131.804H1196.17V142.64C1196.17 143.792 1196.47 144.704 1197.07 145.376C1197.7 146.024 1198.51 146.348 1199.52 146.348C1200.55 146.348 1201.37 146.024 1201.97 145.376C1202.57 144.704 1202.87 143.792 1202.87 142.64V131.804H1209.96ZM1221.03 125.36V152H1213.98V125.36H1221.03ZM1223.9 141.884C1223.9 139.796 1224.27 137.972 1225.02 136.412C1225.78 134.852 1226.82 133.652 1228.11 132.812C1229.43 131.972 1230.9 131.552 1232.5 131.552C1233.9 131.552 1235.1 131.828 1236.1 132.38C1237.11 132.932 1237.89 133.676 1238.44 134.612V131.804H1245.5V152H1238.44V149.192C1237.89 150.128 1237.1 150.872 1236.07 151.424C1235.06 151.976 1233.87 152.252 1232.5 152.252C1230.9 152.252 1229.43 151.832 1228.11 150.992C1226.82 150.152 1225.78 148.952 1225.02 147.392C1224.27 145.808 1223.9 143.972 1223.9 141.884ZM1238.44 141.884C1238.44 140.588 1238.08 139.568 1237.36 138.824C1236.67 138.08 1235.8 137.708 1234.77 137.708C1233.72 137.708 1232.84 138.08 1232.14 138.824C1231.45 139.544 1231.1 140.564 1231.1 141.884C1231.1 143.18 1231.45 144.212 1232.14 144.98C1232.84 145.724 1233.72 146.096 1234.77 146.096C1235.8 146.096 1236.67 145.724 1237.36 144.98C1238.08 144.236 1238.44 143.204 1238.44 141.884ZM1256.58 135.368C1257.37 134.216 1258.33 133.304 1259.46 132.632C1260.58 131.96 1261.8 131.624 1263.09 131.624V139.148H1261.11C1259.58 139.148 1258.44 139.448 1257.69 140.048C1256.95 140.648 1256.58 141.692 1256.58 143.18V152H1249.52V131.804H1256.58V135.368Z" fill="white"/>
<path d="M1000.48 465.86H991.48L990.112 470H982.696L991.948 444.62H1000.08L1009.3 470H1001.85L1000.48 465.86ZM998.716 460.46L995.98 452.252L993.28 460.46H998.716ZM1024.81 449.624C1027.14 449.624 1028.99 450.404 1030.36 451.964C1031.72 453.5 1032.41 455.588 1032.41 458.228V470H1025.35V459.164C1025.35 458.012 1025.05 457.112 1024.45 456.464C1023.85 455.792 1023.05 455.456 1022.04 455.456C1020.98 455.456 1020.16 455.792 1019.56 456.464C1018.96 457.112 1018.66 458.012 1018.66 459.164V470H1011.6V449.804H1018.66V452.684C1019.28 451.772 1020.12 451.04 1021.18 450.488C1022.23 449.912 1023.44 449.624 1024.81 449.624ZM1035.13 459.884C1035.13 457.796 1035.5 455.972 1036.24 454.412C1037.01 452.852 1038.06 451.652 1039.38 450.812C1040.7 449.972 1042.16 449.552 1043.77 449.552C1045.06 449.552 1046.22 449.828 1047.22 450.38C1048.26 450.908 1049.06 451.64 1049.64 452.576V443.36H1056.73V470H1049.64V467.192C1049.08 468.128 1048.3 468.872 1047.3 469.424C1046.29 469.976 1045.1 470.252 1043.73 470.252C1042.12 470.252 1040.66 469.832 1039.34 468.992C1038.04 468.152 1037.01 466.952 1036.24 465.392C1035.5 463.808 1035.13 461.972 1035.13 459.884ZM1049.67 459.884C1049.67 458.588 1049.31 457.568 1048.59 456.824C1047.9 456.08 1047.03 455.708 1046 455.708C1044.94 455.708 1044.07 456.08 1043.37 456.824C1042.68 457.544 1042.33 458.564 1042.33 459.884C1042.33 461.18 1042.68 462.212 1043.37 462.98C1044.07 463.724 1044.94 464.096 1046 464.096C1047.03 464.096 1047.9 463.724 1048.59 462.98C1049.31 462.236 1049.67 461.204 1049.67 459.884ZM1059.6 459.884C1059.6 457.796 1059.97 455.972 1060.71 454.412C1061.48 452.852 1062.51 451.652 1063.81 450.812C1065.13 449.972 1066.59 449.552 1068.2 449.552C1069.59 449.552 1070.79 449.828 1071.8 450.38C1072.81 450.932 1073.59 451.676 1074.14 452.612V449.804H1081.2V470H1074.14V467.192C1073.59 468.128 1072.8 468.872 1071.76 469.424C1070.76 469.976 1069.57 470.252 1068.2 470.252C1066.59 470.252 1065.13 469.832 1063.81 468.992C1062.51 468.152 1061.48 466.952 1060.71 465.392C1059.97 463.808 1059.6 461.972 1059.6 459.884ZM1074.14 459.884C1074.14 458.588 1073.78 457.568 1073.06 456.824C1072.36 456.08 1071.5 455.708 1070.47 455.708C1069.41 455.708 1068.54 456.08 1067.84 456.824C1067.14 457.544 1066.8 458.564 1066.8 459.884C1066.8 461.18 1067.14 462.212 1067.84 462.98C1068.54 463.724 1069.41 464.096 1070.47 464.096C1071.5 464.096 1072.36 463.724 1073.06 462.98C1073.78 462.236 1074.14 461.204 1074.14 459.884ZM1092.27 453.368C1093.07 452.216 1094.03 451.304 1095.15 450.632C1096.28 449.96 1097.49 449.624 1098.79 449.624V457.148H1096.81C1095.27 457.148 1094.13 457.448 1093.39 458.048C1092.65 458.648 1092.27 459.692 1092.27 461.18V470H1085.22V449.804H1092.27V453.368ZM1115.27 452.612C1115.82 451.676 1116.6 450.932 1117.61 450.38C1118.61 449.828 1119.8 449.552 1121.17 449.552C1122.78 449.552 1124.23 449.972 1125.53 450.812C1126.85 451.652 1127.88 452.852 1128.62 454.412C1129.39 455.972 1129.77 457.796 1129.77 459.884C1129.77 461.972 1129.39 463.808 1128.62 465.392C1127.88 466.952 1126.85 468.152 1125.53 468.992C1124.23 469.832 1122.78 470.252 1121.17 470.252C1119.8 470.252 1118.61 469.976 1117.61 469.424C1116.62 468.872 1115.84 468.128 1115.27 467.192V479.648H1108.21V449.804H1115.27V452.612ZM1122.61 459.884C1122.61 458.564 1122.25 457.544 1121.53 456.824C1120.83 456.08 1119.97 455.708 1118.94 455.708C1117.91 455.708 1117.03 456.08 1116.31 456.824C1115.61 457.568 1115.27 458.588 1115.27 459.884C1115.27 461.204 1115.61 462.236 1116.31 462.98C1117.03 463.724 1117.91 464.096 1118.94 464.096C1119.97 464.096 1120.83 463.724 1121.53 462.98C1122.25 462.212 1122.61 461.18 1122.61 459.884ZM1131.53 459.884C1131.53 457.796 1131.9 455.972 1132.64 454.412C1133.41 452.852 1134.44 451.652 1135.74 450.812C1137.06 449.972 1138.52 449.552 1140.13 449.552C1141.52 449.552 1142.72 449.828 1143.73 450.38C1144.74 450.932 1145.52 451.676 1146.07 452.612V449.804H1153.13V470H1146.07V467.192C1145.52 468.128 1144.73 468.872 1143.69 469.424C1142.69 469.976 1141.5 470.252 1140.13 470.252C1138.52 470.252 1137.06 469.832 1135.74 468.992C1134.44 468.152 1133.41 466.952 1132.64 465.392C1131.9 463.808 1131.53 461.972 1131.53 459.884ZM1146.07 459.884C1146.07 458.588 1145.71 457.568 1144.99 456.824C1144.29 456.08 1143.43 455.708 1142.4 455.708C1141.34 455.708 1140.47 456.08 1139.77 456.824C1139.07 457.544 1138.73 458.564 1138.73 459.884C1138.73 461.18 1139.07 462.212 1139.77 462.98C1140.47 463.724 1141.34 464.096 1142.4 464.096C1143.43 464.096 1144.29 463.724 1144.99 462.98C1145.71 462.236 1146.07 461.204 1146.07 459.884ZM1164.2 453.368C1164.99 452.216 1165.95 451.304 1167.08 450.632C1168.21 449.96 1169.42 449.624 1170.72 449.624V457.148H1168.74C1167.2 457.148 1166.06 457.448 1165.32 458.048C1164.57 458.648 1164.2 459.692 1164.2 461.18V470H1157.15V449.804H1164.2V453.368ZM1172.1 459.884C1172.1 457.796 1172.47 455.972 1173.21 454.412C1173.98 452.852 1175.01 451.652 1176.31 450.812C1177.63 449.972 1179.09 449.552 1180.7 449.552C1182.09 449.552 1183.29 449.828 1184.3 450.38C1185.31 450.932 1186.09 451.676 1186.64 452.612V449.804H1193.7V470H1186.64V467.192C1186.09 468.128 1185.3 468.872 1184.26 469.424C1183.26 469.976 1182.07 470.252 1180.7 470.252C1179.09 470.252 1177.63 469.832 1176.31 468.992C1175.01 468.152 1173.98 466.952 1173.21 465.392C1172.47 463.808 1172.1 461.972 1172.1 459.884ZM1186.64 459.884C1186.64 458.588 1186.28 457.568 1185.56 456.824C1184.86 456.08 1184 455.708 1182.97 455.708C1181.91 455.708 1181.04 456.08 1180.34 456.824C1179.64 457.544 1179.3 458.564 1179.3 459.884C1179.3 461.18 1179.64 462.212 1180.34 462.98C1181.04 463.724 1181.91 464.096 1182.97 464.096C1184 464.096 1184.86 463.724 1185.56 462.98C1186.28 462.236 1186.64 461.204 1186.64 459.884ZM1041.3 498.62C1043.96 498.62 1046.29 499.16 1048.28 500.24C1050.3 501.296 1051.84 502.784 1052.92 504.704C1054 506.624 1054.54 508.82 1054.54 511.292C1054.54 513.74 1053.99 515.924 1052.89 517.844C1051.81 519.764 1050.26 521.276 1048.24 522.38C1046.25 523.46 1043.94 524 1041.3 524H1031.25V498.62H1041.3ZM1040.76 517.772C1042.82 517.772 1044.44 517.208 1045.62 516.08C1046.79 514.952 1047.38 513.356 1047.38 511.292C1047.38 509.204 1046.79 507.596 1045.62 506.468C1044.44 505.316 1042.82 504.74 1040.76 504.74H1038.31V517.772H1040.76ZM1061.29 501.932C1060.04 501.932 1059.03 501.596 1058.26 500.924C1057.52 500.228 1057.15 499.364 1057.15 498.332C1057.15 497.276 1057.52 496.4 1058.26 495.704C1059.03 495.008 1060.04 494.66 1061.29 494.66C1062.51 494.66 1063.5 495.008 1064.24 495.704C1065.01 496.4 1065.39 497.276 1065.39 498.332C1065.39 499.364 1065.01 500.228 1064.24 500.924C1063.5 501.596 1062.51 501.932 1061.29 501.932ZM1064.78 503.804V524H1057.72V503.804H1064.78ZM1075.86 507.368C1076.65 506.216 1077.61 505.304 1078.74 504.632C1079.86 503.96 1081.08 503.624 1082.37 503.624V511.148H1080.39C1078.86 511.148 1077.72 511.448 1076.97 512.048C1076.23 512.648 1075.86 513.692 1075.86 515.18V524H1068.8V503.804H1075.86V507.368ZM1104.2 513.668C1104.2 514.22 1104.16 514.772 1104.09 515.324H1090.73C1090.8 516.428 1091.1 517.256 1091.63 517.808C1092.18 518.336 1092.88 518.6 1093.72 518.6C1094.9 518.6 1095.74 518.072 1096.24 517.016H1103.76C1103.45 518.408 1102.84 519.656 1101.93 520.76C1101.04 521.84 1099.91 522.692 1098.54 523.316C1097.18 523.94 1095.66 524.252 1094.01 524.252C1092.02 524.252 1090.24 523.832 1088.68 522.992C1087.14 522.152 1085.93 520.952 1085.04 519.392C1084.18 517.832 1083.75 515.996 1083.75 513.884C1083.75 511.772 1084.18 509.948 1085.04 508.412C1085.91 506.852 1087.11 505.652 1088.64 504.812C1090.2 503.972 1091.99 503.552 1094.01 503.552C1096 503.552 1097.76 503.96 1099.3 504.776C1100.84 505.592 1102.04 506.768 1102.9 508.304C1103.76 509.816 1104.2 511.604 1104.2 513.668ZM1097 511.904C1097 511.04 1096.71 510.368 1096.13 509.888C1095.56 509.384 1094.84 509.132 1093.97 509.132C1093.11 509.132 1092.4 509.372 1091.85 509.852C1091.3 510.308 1090.94 510.992 1090.77 511.904H1097ZM1110.65 501.932C1109.4 501.932 1108.39 501.596 1107.62 500.924C1106.88 500.228 1106.51 499.364 1106.51 498.332C1106.51 497.276 1106.88 496.4 1107.62 495.704C1108.39 495.008 1109.4 494.66 1110.65 494.66C1111.87 494.66 1112.86 495.008 1113.6 495.704C1114.37 496.4 1114.75 497.276 1114.75 498.332C1114.75 499.364 1114.37 500.228 1113.6 500.924C1112.86 501.596 1111.87 501.932 1110.65 501.932ZM1114.14 503.804V524H1107.08V503.804H1114.14ZM1130.07 517.988V524H1127.01C1121.85 524 1119.27 521.444 1119.27 516.332V509.672H1116.79V503.804H1119.27V498.908H1126.37V503.804H1130.04V509.672H1126.37V516.44C1126.37 516.992 1126.49 517.388 1126.73 517.628C1126.99 517.868 1127.42 517.988 1128.02 517.988H1130.07ZM1132.16 513.884C1132.16 511.796 1132.53 509.972 1133.27 508.412C1134.04 506.852 1135.07 505.652 1136.37 504.812C1137.69 503.972 1139.15 503.552 1140.76 503.552C1142.15 503.552 1143.35 503.828 1144.36 504.38C1145.37 504.932 1146.15 505.676 1146.7 506.612V503.804H1153.76V524H1146.7V521.192C1146.15 522.128 1145.36 522.872 1144.33 523.424C1143.32 523.976 1142.13 524.252 1140.76 524.252C1139.15 524.252 1137.69 523.832 1136.37 522.992C1135.07 522.152 1134.04 520.952 1133.27 519.392C1132.53 517.808 1132.16 515.972 1132.16 513.884ZM1146.7 513.884C1146.7 512.588 1146.34 511.568 1145.62 510.824C1144.93 510.08 1144.06 509.708 1143.03 509.708C1141.97 509.708 1141.1 510.08 1140.4 510.824C1139.71 511.544 1139.36 512.564 1139.36 513.884C1139.36 515.18 1139.71 516.212 1140.4 516.98C1141.1 517.724 1141.97 518.096 1143.03 518.096C1144.06 518.096 1144.93 517.724 1145.62 516.98C1146.34 516.236 1146.7 515.204 1146.7 513.884Z" fill="white"/>
<path d="M757.48 465.86H748.48L747.112 470H739.696L748.948 444.62H757.084L766.3 470H758.848L757.48 465.86ZM755.716 460.46L752.98 452.252L750.28 460.46H755.716ZM781.812 449.624C784.14 449.624 785.988 450.404 787.356 451.964C788.724 453.5 789.408 455.588 789.408 458.228V470H782.352V459.164C782.352 458.012 782.052 457.112 781.452 456.464C780.852 455.792 780.048 455.456 779.04 455.456C777.984 455.456 777.156 455.792 776.556 456.464C775.956 457.112 775.656 458.012 775.656 459.164V470H768.6V449.804H775.656V452.684C776.28 451.772 777.12 451.04 778.176 450.488C779.232 449.912 780.444 449.624 781.812 449.624ZM792.128 459.884C792.128 457.796 792.5 455.972 793.244 454.412C794.012 452.852 795.056 451.652 796.376 450.812C797.696 449.972 799.16 449.552 800.768 449.552C802.064 449.552 803.216 449.828 804.224 450.38C805.256 450.908 806.06 451.64 806.636 452.576V443.36H813.728V470H806.636V467.192C806.084 468.128 805.304 468.872 804.296 469.424C803.288 469.976 802.1 470.252 800.732 470.252C799.124 470.252 797.66 469.832 796.34 468.992C795.044 468.152 794.012 466.952 793.244 465.392C792.5 463.808 792.128 461.972 792.128 459.884ZM806.672 459.884C806.672 458.588 806.312 457.568 805.592 456.824C804.896 456.08 804.032 455.708 803 455.708C801.944 455.708 801.068 456.08 800.372 456.824C799.676 457.544 799.328 458.564 799.328 459.884C799.328 461.18 799.676 462.212 800.372 462.98C801.068 463.724 801.944 464.096 803 464.096C804.032 464.096 804.896 463.724 805.592 462.98C806.312 462.236 806.672 461.204 806.672 459.884ZM816.596 459.884C816.596 457.796 816.968 455.972 817.712 454.412C818.48 452.852 819.512 451.652 820.808 450.812C822.128 449.972 823.592 449.552 825.2 449.552C826.592 449.552 827.792 449.828 828.8 450.38C829.808 450.932 830.588 451.676 831.14 452.612V449.804H838.196V470H831.14V467.192C830.588 468.128 829.796 468.872 828.764 469.424C827.756 469.976 826.568 470.252 825.2 470.252C823.592 470.252 822.128 469.832 820.808 468.992C819.512 468.152 818.48 466.952 817.712 465.392C816.968 463.808 816.596 461.972 816.596 459.884ZM831.14 459.884C831.14 458.588 830.78 457.568 830.06 456.824C829.364 456.08 828.5 455.708 827.468 455.708C826.412 455.708 825.536 456.08 824.84 456.824C824.144 457.544 823.796 458.564 823.796 459.884C823.796 461.18 824.144 462.212 824.84 462.98C825.536 463.724 826.412 464.096 827.468 464.096C828.5 464.096 829.364 463.724 830.06 462.98C830.78 462.236 831.14 461.204 831.14 459.884ZM849.273 453.368C850.065 452.216 851.025 451.304 852.153 450.632C853.281 449.96 854.493 449.624 855.789 449.624V457.148H853.809C852.273 457.148 851.133 457.448 850.389 458.048C849.645 458.648 849.273 459.692 849.273 461.18V470H842.217V449.804H849.273V453.368ZM872.265 452.612C872.817 451.676 873.597 450.932 874.605 450.38C875.613 449.828 876.801 449.552 878.169 449.552C879.777 449.552 881.229 449.972 882.525 450.812C883.845 451.652 884.877 452.852 885.621 454.412C886.389 455.972 886.773 457.796 886.773 459.884C886.773 461.972 886.389 463.808 885.621 465.392C884.877 466.952 883.845 468.152 882.525 468.992C881.229 469.832 879.777 470.252 878.169 470.252C876.801 470.252 875.613 469.976 874.605 469.424C873.621 468.872 872.841 468.128 872.265 467.192V479.648H865.209V449.804H872.265V452.612ZM879.609 459.884C879.609 458.564 879.249 457.544 878.529 456.824C877.833 456.08 876.969 455.708 875.937 455.708C874.905 455.708 874.029 456.08 873.309 456.824C872.613 457.568 872.265 458.588 872.265 459.884C872.265 461.204 872.613 462.236 873.309 462.98C874.029 463.724 874.905 464.096 875.937 464.096C876.969 464.096 877.833 463.724 878.529 462.98C879.249 462.212 879.609 461.18 879.609 459.884ZM888.526 459.884C888.526 457.796 888.898 455.972 889.642 454.412C890.41 452.852 891.442 451.652 892.738 450.812C894.058 449.972 895.522 449.552 897.13 449.552C898.522 449.552 899.722 449.828 900.73 450.38C901.738 450.932 902.518 451.676 903.07 452.612V449.804H910.126V470H903.07V467.192C902.518 468.128 901.726 468.872 900.694 469.424C899.686 469.976 898.498 470.252 897.13 470.252C895.522 470.252 894.058 469.832 892.738 468.992C891.442 468.152 890.41 466.952 889.642 465.392C888.898 463.808 888.526 461.972 888.526 459.884ZM903.07 459.884C903.07 458.588 902.71 457.568 901.99 456.824C901.294 456.08 900.43 455.708 899.398 455.708C898.342 455.708 897.466 456.08 896.77 456.824C896.074 457.544 895.726 458.564 895.726 459.884C895.726 461.18 896.074 462.212 896.77 462.98C897.466 463.724 898.342 464.096 899.398 464.096C900.43 464.096 901.294 463.724 901.99 462.98C902.71 462.236 903.07 461.204 903.07 459.884ZM921.203 453.368C921.995 452.216 922.955 451.304 924.083 450.632C925.211 449.96 926.423 449.624 927.719 449.624V457.148H925.739C924.203 457.148 923.063 457.448 922.319 458.048C921.575 458.648 921.203 459.692 921.203 461.18V470H914.147V449.804H921.203V453.368ZM929.096 459.884C929.096 457.796 929.468 455.972 930.212 454.412C930.98 452.852 932.012 451.652 933.308 450.812C934.628 449.972 936.092 449.552 937.7 449.552C939.092 449.552 940.292 449.828 941.3 450.38C942.308 450.932 943.088 451.676 943.64 452.612V449.804H950.696V470H943.64V467.192C943.088 468.128 942.296 468.872 941.264 469.424C940.256 469.976 939.068 470.252 937.7 470.252C936.092 470.252 934.628 469.832 933.308 468.992C932.012 468.152 930.98 466.952 930.212 465.392C929.468 463.808 929.096 461.972 929.096 459.884ZM943.64 459.884C943.64 458.588 943.28 457.568 942.56 456.824C941.864 456.08 941 455.708 939.968 455.708C938.912 455.708 938.036 456.08 937.34 456.824C936.644 457.544 936.296 458.564 936.296 459.884C936.296 461.18 936.644 462.212 937.34 462.98C938.036 463.724 938.912 464.096 939.968 464.096C941 464.096 941.864 463.724 942.56 462.98C943.28 462.236 943.64 461.204 943.64 459.884ZM770.295 504.272V508.412H778.395V513.776H770.295V518.348H779.475V524H763.239V498.62H779.475V504.272H770.295ZM791.565 524.252C789.741 524.252 788.109 523.952 786.669 523.352C785.253 522.728 784.125 521.888 783.285 520.832C782.469 519.752 782.013 518.54 781.917 517.196H788.757C788.853 517.844 789.153 518.348 789.657 518.708C790.161 519.068 790.785 519.248 791.529 519.248C792.105 519.248 792.561 519.128 792.897 518.888C793.233 518.648 793.401 518.336 793.401 517.952C793.401 517.448 793.125 517.076 792.573 516.836C792.021 516.596 791.109 516.332 789.837 516.044C788.397 515.756 787.197 515.432 786.237 515.072C785.277 514.712 784.437 514.124 783.717 513.308C783.021 512.492 782.673 511.388 782.673 509.996C782.673 508.796 782.997 507.716 783.645 506.756C784.293 505.772 785.241 504.992 786.489 504.416C787.761 503.84 789.285 503.552 791.061 503.552C793.701 503.552 795.777 504.2 797.289 505.496C798.801 506.792 799.677 508.496 799.917 510.608H793.545C793.425 509.96 793.137 509.468 792.681 509.132C792.249 508.772 791.661 508.592 790.917 508.592C790.341 508.592 789.897 508.7 789.585 508.916C789.297 509.132 789.153 509.432 789.153 509.816C789.153 510.296 789.429 510.668 789.981 510.932C790.533 511.172 791.421 511.424 792.645 511.688C794.109 512 795.321 512.348 796.281 512.732C797.265 513.116 798.117 513.74 798.837 514.604C799.581 515.444 799.953 516.596 799.953 518.06C799.953 519.236 799.605 520.292 798.909 521.228C798.237 522.164 797.265 522.908 795.993 523.46C794.745 523.988 793.269 524.252 791.565 524.252ZM802.27 513.992C802.27 512 802.678 510.224 803.494 508.664C804.334 507.08 805.438 505.844 806.806 504.956C808.198 504.068 809.71 503.624 811.342 503.624C813.694 503.624 815.518 504.368 816.814 505.856V503.804H823.87V533.648H816.814V521.624C815.326 523.376 813.49 524.252 811.306 524.252C809.674 524.252 808.162 523.82 806.77 522.956C805.402 522.092 804.31 520.88 803.494 519.32C802.678 517.76 802.27 515.984 802.27 513.992ZM816.814 513.884C816.814 512.54 816.43 511.52 815.662 510.824C814.918 510.104 814.078 509.744 813.142 509.744C812.206 509.744 811.354 510.116 810.586 510.86C809.842 511.58 809.47 512.624 809.47 513.992C809.47 515.36 809.842 516.392 810.586 517.088C811.33 517.76 812.182 518.096 813.142 518.096C814.078 518.096 814.918 517.736 815.662 517.016C816.43 516.296 816.814 515.252 816.814 513.884ZM848.555 503.804V524H841.463V521.12C840.863 522.032 840.035 522.776 838.979 523.352C837.923 523.904 836.711 524.18 835.343 524.18C832.991 524.18 831.131 523.412 829.763 521.876C828.419 520.316 827.747 518.204 827.747 515.54V503.804H834.767V514.64C834.767 515.792 835.067 516.704 835.667 517.376C836.291 518.024 837.107 518.348 838.115 518.348C839.147 518.348 839.963 518.024 840.563 517.376C841.163 516.704 841.463 515.792 841.463 514.64V503.804H848.555ZM871.867 513.668C871.867 514.22 871.831 514.772 871.759 515.324H858.403C858.475 516.428 858.775 517.256 859.303 517.808C859.855 518.336 860.551 518.6 861.391 518.6C862.567 518.6 863.407 518.072 863.911 517.016H871.435C871.123 518.408 870.511 519.656 869.599 520.76C868.711 521.84 867.583 522.692 866.215 523.316C864.847 523.94 863.335 524.252 861.679 524.252C859.687 524.252 857.911 523.832 856.351 522.992C854.815 522.152 853.603 520.952 852.715 519.392C851.851 517.832 851.419 515.996 851.419 513.884C851.419 511.772 851.851 509.948 852.715 508.412C853.579 506.852 854.779 505.652 856.315 504.812C857.875 503.972 859.663 503.552 861.679 503.552C863.671 503.552 865.435 503.96 866.971 504.776C868.507 505.592 869.707 506.768 870.571 508.304C871.435 509.816 871.867 511.604 871.867 513.668ZM864.667 511.904C864.667 511.04 864.379 510.368 863.803 509.888C863.227 509.384 862.507 509.132 861.643 509.132C860.779 509.132 860.071 509.372 859.519 509.852C858.967 510.308 858.607 510.992 858.439 511.904H864.667ZM881.81 507.368C882.602 506.216 883.562 505.304 884.69 504.632C885.818 503.96 887.03 503.624 888.326 503.624V511.148H886.346C884.81 511.148 883.67 511.448 882.926 512.048C882.182 512.648 881.81 513.692 881.81 515.18V524H874.754V503.804H881.81V507.368ZM889.704 513.884C889.704 511.796 890.076 509.972 890.82 508.412C891.588 506.852 892.632 505.652 893.952 504.812C895.272 503.972 896.736 503.552 898.344 503.552C899.64 503.552 900.792 503.828 901.8 504.38C902.832 504.908 903.636 505.64 904.212 506.576V497.36H911.304V524H904.212V521.192C903.66 522.128 902.88 522.872 901.872 523.424C900.864 523.976 899.676 524.252 898.308 524.252C896.7 524.252 895.236 523.832 893.916 522.992C892.62 522.152 891.588 520.952 890.82 519.392C890.076 517.808 889.704 515.972 889.704 513.884ZM904.248 513.884C904.248 512.588 903.888 511.568 903.168 510.824C902.472 510.08 901.608 509.708 900.576 509.708C899.52 509.708 898.644 510.08 897.948 510.824C897.252 511.544 896.904 512.564 896.904 513.884C896.904 515.18 897.252 516.212 897.948 516.98C898.644 517.724 899.52 518.096 900.576 518.096C901.608 518.096 902.472 517.724 903.168 516.98C903.888 516.236 904.248 515.204 904.248 513.884ZM914.173 513.884C914.173 511.796 914.545 509.972 915.289 508.412C916.057 506.852 917.089 505.652 918.385 504.812C919.705 503.972 921.169 503.552 922.777 503.552C924.169 503.552 925.369 503.828 926.377 504.38C927.385 504.932 928.165 505.676 928.717 506.612V503.804H935.773V524H928.717V521.192C928.165 522.128 927.373 522.872 926.341 523.424C925.333 523.976 924.145 524.252 922.777 524.252C921.169 524.252 919.705 523.832 918.385 522.992C917.089 522.152 916.057 520.952 915.289 519.392C914.545 517.808 914.173 515.972 914.173 513.884ZM928.717 513.884C928.717 512.588 928.357 511.568 927.637 510.824C926.941 510.08 926.077 509.708 925.045 509.708C923.989 509.708 923.113 510.08 922.417 510.824C921.721 511.544 921.373 512.564 921.373 513.884C921.373 515.18 921.721 516.212 922.417 516.98C923.113 517.724 923.989 518.096 925.045 518.096C926.077 518.096 926.941 517.724 927.637 516.98C928.357 516.236 928.717 515.204 928.717 513.884Z" fill="white"/>
<path d="M391.455 465.86H382.455L381.087 470H373.671L382.923 444.62H391.059L400.275 470H392.823L391.455 465.86ZM389.691 460.46L386.955 452.252L384.255 460.46H389.691ZM414.491 463.988V470H411.431C406.271 470 403.691 467.444 403.691 462.332V455.672H401.207V449.804H403.691V444.908H410.783V449.804H414.455V455.672H410.783V462.44C410.783 462.992 410.903 463.388 411.143 463.628C411.407 463.868 411.839 463.988 412.439 463.988H414.491ZM416.575 459.884C416.575 457.796 416.947 455.972 417.691 454.412C418.459 452.852 419.491 451.652 420.787 450.812C422.107 449.972 423.571 449.552 425.179 449.552C426.571 449.552 427.771 449.828 428.779 450.38C429.787 450.932 430.567 451.676 431.119 452.612V449.804H438.175V470H431.119V467.192C430.567 468.128 429.775 468.872 428.743 469.424C427.735 469.976 426.547 470.252 425.179 470.252C423.571 470.252 422.107 469.832 420.787 468.992C419.491 468.152 418.459 466.952 417.691 465.392C416.947 463.808 416.575 461.972 416.575 459.884ZM431.119 459.884C431.119 458.588 430.759 457.568 430.039 456.824C429.343 456.08 428.479 455.708 427.447 455.708C426.391 455.708 425.515 456.08 424.819 456.824C424.123 457.544 423.775 458.564 423.775 459.884C423.775 461.18 424.123 462.212 424.819 462.98C425.515 463.724 426.391 464.096 427.447 464.096C428.479 464.096 429.343 463.724 430.039 462.98C430.759 462.236 431.119 461.204 431.119 459.884ZM441.044 459.884C441.044 457.796 441.476 455.972 442.34 454.412C443.204 452.852 444.404 451.652 445.94 450.812C447.5 449.972 449.276 449.552 451.268 449.552C453.836 449.552 455.996 450.26 457.748 451.676C459.5 453.068 460.628 455.024 461.132 457.544H453.644C453.212 456.224 452.372 455.564 451.124 455.564C450.236 455.564 449.528 455.936 449 456.68C448.496 457.4 448.244 458.468 448.244 459.884C448.244 461.3 448.496 462.38 449 463.124C449.528 463.868 450.236 464.24 451.124 464.24C452.396 464.24 453.236 463.58 453.644 462.26H461.132C460.628 464.756 459.5 466.712 457.748 468.128C455.996 469.544 453.836 470.252 451.268 470.252C449.276 470.252 447.5 469.832 445.94 468.992C444.404 468.152 443.204 466.952 442.34 465.392C441.476 463.832 441.044 461.996 441.044 459.884ZM462.911 459.884C462.911 457.796 463.283 455.972 464.027 454.412C464.795 452.852 465.827 451.652 467.123 450.812C468.443 449.972 469.907 449.552 471.515 449.552C472.907 449.552 474.107 449.828 475.115 450.38C476.123 450.932 476.903 451.676 477.455 452.612V449.804H484.511V470H477.455V467.192C476.903 468.128 476.111 468.872 475.079 469.424C474.071 469.976 472.883 470.252 471.515 470.252C469.907 470.252 468.443 469.832 467.123 468.992C465.827 468.152 464.795 466.952 464.027 465.392C463.283 463.808 462.911 461.972 462.911 459.884ZM477.455 459.884C477.455 458.588 477.095 457.568 476.375 456.824C475.679 456.08 474.815 455.708 473.783 455.708C472.727 455.708 471.851 456.08 471.155 456.824C470.459 457.544 470.111 458.564 470.111 459.884C470.111 461.18 470.459 462.212 471.155 462.98C471.851 463.724 472.727 464.096 473.783 464.096C474.815 464.096 475.679 463.724 476.375 462.98C477.095 462.236 477.455 461.204 477.455 459.884ZM495.588 453.368C496.38 452.216 497.34 451.304 498.468 450.632C499.596 449.96 500.808 449.624 502.104 449.624V457.148H500.124C498.588 457.148 497.448 457.448 496.704 458.048C495.96 458.648 495.588 459.692 495.588 461.18V470H488.532V449.804H495.588V453.368Z" fill="white"/>
<defs>
<filter id="filter0_d_7_8" x="820" y="200" width="94" height="96" filterUnits="userSpaceOnUse" color-interpolation-filters="sRGB">
<feFlood flood-opacity="0" result="BackgroundImageFix"/>
<feColorMatrix in="SourceAlpha" type="matrix" values="0 0 0 0 0 0 0 0 0 0 0 0 0 0 0 0 0 0 127 0" result="hardAlpha"/>
<feMorphology radius="2" operator="dilate" in="SourceAlpha" result="effect1_dropShadow_7_8"/>
<feOffset dy="4"/>
<feColorMatrix type="matrix" values="0 0 0 0 0 0 0 0 0 0 0 0 0 0 0 0 0 0 1 0"/>
<feBlend mode="normal" in2="BackgroundImageFix" result="effect1_dropShadow_7_8"/>
<feBlend mode="normal" in="SourceGraphic" in2="effect1_dropShadow_7_8" result="shape"/>
</filter>
<filter id="filter1_d_7_8" x="935" y="200" width="94" height="96" filterUnits="userSpaceOnUse" color-interpolation-filters="sRGB">
<feFlood flood-opacity="0" result="BackgroundImageFix"/>
<feColorMatrix in="SourceAlpha" type="matrix" values="0 0 0 0 0 0 0 0 0 0 0 0 0 0 0 0 0 0 127 0" result="hardAlpha"/>
<feMorphology radius="2" operator="dilate" in="SourceAlpha" result="effect1_dropShadow_7_8"/>
<feOffset dy="4"/>
<feColorMatrix type="matrix" values="0 0 0 0 0 0 0 0 0 0 0 0 0 0 0 0 0 0 1 0"/>
<feBlend mode="normal" in2="BackgroundImageFix" result="effect1_dropShadow_7_8"/>
<feBlend mode="normal" in="SourceGraphic" in2="effect1_dropShadow_7_8" result="shape"/>
</filter>
<filter id="filter2_d_7_8" x="935" y="93" width="94" height="96" filterUnits="userSpaceOnUse" color-interpolation-filters="sRGB">
<feFlood flood-opacity="0" result="BackgroundImageFix"/>
<feColorMatrix in="SourceAlpha" type="matrix" values="0 0 0 0 0 0 0 0 0 0 0 0 0 0 0 0 0 0 127 0" result="hardAlpha"/>
<feMorphology radius="2" operator="dilate" in="SourceAlpha" result="effect1_dropShadow_7_8"/>
<feOffset dy="4"/>
<feColorMatrix type="matrix" values="0 0 0 0 0 0 0 0 0 0 0 0 0 0 0 0 0 0 1 0"/>
<feBlend mode="normal" in2="BackgroundImageFix" result="effect1_dropShadow_7_8"/>
<feBlend mode="normal" in="SourceGraphic" in2="effect1_dropShadow_7_8" result="shape"/>
</filter>
<filter id="filter3_d_7_8" x="1050" y="200" width="94" height="96" filterUnits="userSpaceOnUse" color-interpolation-filters="sRGB">
<feFlood flood-opacity="0" result="BackgroundImageFix"/>
<feColorMatrix in="SourceAlpha" type="matrix" values="0 0 0 0 0 0 0 0 0 0 0 0 0 0 0 0 0 0 127 0" result="hardAlpha"/>
<feMorphology radius="2" operator="dilate" in="SourceAlpha" result="effect1_dropShadow_7_8"/>
<feOffset dy="4"/>
<feColorMatrix type="matrix" values="0 0 0 0 0 0 0 0 0 0 0 0 0 0 0 0 0 0 1 0"/>
<feBlend mode="normal" in2="BackgroundImageFix" result="effect1_dropShadow_7_8"/>
<feBlend mode="normal" in="SourceGraphic" in2="effect1_dropShadow_7_8" result="shape"/>
</filter>
<filter id="filter4_d_7_8" x="127" y="200" width="621" height="96" filterUnits="userSpaceOnUse" color-interpolation-filters="sRGB">
<feFlood flood-opacity="0" result="BackgroundImageFix"/>
<feColorMatrix in="SourceAlpha" type="matrix" values="0 0 0 0 0 0 0 0 0 0 0 0 0 0 0 0 0 0 127 0" result="hardAlpha"/>
<feMorphology radius="2" operator="dilate" in="SourceAlpha" result="effect1_dropShadow_7_8"/>
<feOffset dy="4"/>
<feColorMatrix type="matrix" values="0 0 0 0 0 0 0 0 0 0 0 0 0 0 0 0 0 0 1 0"/>
<feBlend mode="normal" in2="BackgroundImageFix" result="effect1_dropShadow_7_8"/>
<feBlend mode="normal" in="SourceGraphic" in2="effect1_dropShadow_7_8" result="shape"/>
</filter>
</defs>
</svg>
